<?xml version="1.0" encoding="UTF-8" standalone="no"?>
<!-- Created with Inkscape (http://www.inkscape.org/) -->

<svg
   xmlns:dc="http://purl.org/dc/elements/1.1/"
   xmlns:cc="http://creativecommons.org/ns#"
   xmlns:rdf="http://www.w3.org/1999/02/22-rdf-syntax-ns#"
   xmlns:svg="http://www.w3.org/2000/svg"
   xmlns="http://www.w3.org/2000/svg"
   xmlns:sodipodi="http://sodipodi.sourceforge.net/DTD/sodipodi-0.dtd"
   xmlns:inkscape="http://www.inkscape.org/namespaces/inkscape"
   width="110px"
   height="110px"
   viewBox="0 0 110 110"
   version="1.1"
   id="SVGRoot"
   inkscape:version="0.92.2 (5c3e80d, 2017-08-06)"
   sodipodi:docname="klast_log_2.svg">
  <sodipodi:namedview
     id="base"
     pagecolor="#ffffff"
     bordercolor="#666666"
     borderopacity="1.0"
     inkscape:pageopacity="0.0"
     inkscape:pageshadow="2"
     inkscape:zoom="4.6545455"
     inkscape:cx="36.201172"
     inkscape:cy="55"
     inkscape:document-units="px"
     inkscape:current-layer="layer1"
     showgrid="false"
     inkscape:window-width="1920"
     inkscape:window-height="1027"
     inkscape:window-x="-8"
     inkscape:window-y="-8"
     inkscape:window-maximized="1"
     showguides="false" />
  <defs
     id="defs19895">
    <clipPath
       clipPathUnits="userSpaceOnUse"
       id="clipPath19891">
      <rect
         y="13.423058"
         x="16.902809"
         height="95.843628"
         width="104.29641"
         id="rect19893"
         style="opacity:1;fill:none;fill-opacity:1;stroke:#000000;stroke-width:3.99922919;stroke-miterlimit:4;stroke-dasharray:none;stroke-opacity:1" />
    </clipPath>
  </defs>
  <metadata
     id="metadata19898">
    <rdf:RDF>
      <cc:Work
         rdf:about="">
        <dc:format>image/svg+xml</dc:format>
        <dc:type
           rdf:resource="http://purl.org/dc/dcmitype/StillImage" />
        <dc:title />
      </cc:Work>
    </rdf:RDF>
  </metadata>
  <g
     id="layer1"
     inkscape:groupmode="layer"
     inkscape:label="Layer 1">
    <path
       style="fill:#130518;fill-opacity:1;stroke:none;stroke-width:1.79494655px;stroke-linecap:butt;stroke-linejoin:miter;stroke-opacity:1"
       d="m 25.48675,10.622601 c -3.861163,0 -6.946456,1.532865 -9.255193,4.596045 -2.288833,3.032237 -3.432135,7.48511 -3.432135,13.363938 v 6.8222 c 0,5.507534 -0.787041,9.347015 -2.359372,11.512901 -1.5723308,2.134943 -4.1080829,3.200753 -7.6109962,3.200753 H 0.73962501 V 61.536682 H 2.8290538 c 3.5029133,0 6.0386654,1.083952 7.6109962,3.249836 1.572331,2.134944 2.359372,5.952779 2.359372,11.460315 v 6.825705 c 0,5.878829 1.143302,10.331699 3.432135,13.363938 2.308737,3.063179 5.39403,4.596044 9.255193,4.596044 h 8.182434 V 90.802728 l 43.401249,0.164772 0.07011,0.02453 0.143739,10.27186 8.178926,-0.1192 c 3.860769,-0.0552 6.923891,-1.629876 9.188585,-4.725762 2.245234,-3.064661 3.326897,-7.53479 3.242823,-13.413018 l -0.09816,-6.822202 c -0.07877,-5.50697 0.653409,-9.3563 2.194599,-11.544449 1.541645,-2.157212 4.062875,-3.259338 7.565425,-3.309434 l 2.08942,-0.03156 -0.16477,-11.414739 -2.08942,0.03156 c -3.50257,0.0501 -6.05344,-0.997979 -7.656585,-3.141156 -1.602702,-2.11224 -2.445378,-5.921791 -2.524143,-11.428763 l -0.09817,-6.8222 C 97.028733,22.644741 95.823335,18.207306 93.491368,15.208109 91.13906,12.17826 88.030335,10.690066 84.169565,10.745284 l -8.178926,0.115675 0.150732,10.310426 -0.07011,0.01391 -42.864868,-0.164772 -0.01757,-0.0037 h 0.480372 V 10.622299 Z"
       id="path19856"
       inkscape:connector-curvature="0" />
    <rect
       style="fill:none;stroke:none;stroke-width:0.78280985"
       width="48.501598"
       height="49.388374"
       x="29.401155"
       y="30.11314"
       id="rect16154" />
  </g>
</svg>
